<svg xmlns="http://www.w3.org/2000/svg" xmlns:xlink="http://www.w3.org/1999/xlink">
  <defs/>
  <g>
    <path stroke="none" fill="#000000" d="M799.9 1467.1 Q841.75 1467.1 881.85 1462.7 L800.1 1304.6 718.5 1462.7 Q758.25 1467.1 799.9 1467.1 M733.7 962.7 L732.55 962.9 Q630.5 982 544.75 1054.35 564.2 1071.15 576.85 1081.35 L576.9 1081.4 Q607.55 1106.3 641.65 1123.2 676.75 1140.55 692.15 1145.3 696.4 1146.6 699.05 1150.15 701.7 1153.7 701.7 1158.15 L701.7 1263.05 Q701.7 1266.3 700.2 1269.2 L611.1 1441.75 Q649.65 1452.7 690.25 1458.95 L786.1 1273.2 786.1 1172.1 Q786.1 1166.55 790.05 1162.65 793.95 1158.7 799.55 1158.7 L799.9 1158.7 Q831.05 1158.7 860.6 1154.2 L860.7 1154.2 Q912.1 1145.95 957.75 1123.35 L957.8 1123.35 Q1006.8 1099.15 1048.9 1058.25 996.45 1012.6 940.2 986.6 L940.15 986.55 Q903.4 969.35 865.4 962 L864 961.7 Q832.95 955.6 801.25 956.15 766.6 956.7 733.7 962.7 M797.45 548.25 L797.4 548.25 796.7 548.35 795.9 548.4 795.75 548.4 795.65 548.4 Q778.2 549.4 765.6 562 L765.55 562.05 764.55 563.15 764.05 563.75 Q751.75 576.85 751.8 595.2 751.85 614.6 765.6 628.35 779.35 642.15 798.8 642.15 818.2 642.15 831.95 628.35 845.75 614.6 845.75 595.2 845.75 575.8 831.95 562.05 L831.95 562 Q818.2 548.25 798.8 548.25 L797.6 548.25 797.45 548.25 M512.6 437.55 L512.4 437.75 Q492.25 454.05 473 473.1 L472.95 473.2 Q386.05 560.1 355.05 670.45 L435.55 670.45 Q463.2 591.25 527.05 527.2 L527.15 527.15 Q543.1 511.35 560 497.75 L560 497.7 Q592.9 471.15 629.4 453 L597.75 382.9 Q552.9 404.75 512.6 437.55 M1573.15 800.15 Q1573.15 479.8 1346.5 253.25 1120.3 26.85 799.9 26.85 479.7 26.85 253.1 253.25 26.85 479.8 26.85 800.15 26.85 1120.35 253.1 1346.55 384.2 1477.7 546.45 1532.85 L546.5 1532.85 Q664.85 1573.15 799.9 1573.1 935.15 1573.15 1053.7 1532.85 1215.75 1477.5 1346.5 1346.55 L1346.55 1346.55 Q1573.15 1120.35 1573.15 800.15 M1029.55 254.15 L1029.85 254.3 1030.2 254.45 Q1132.45 297.5 1217.35 382.4 1390.3 555.35 1390.3 800.15 1390.25 981.75 1294.65 1123.9 1291.55 1128.5 1286.1 1129.55 1280.7 1130.65 1276.05 1127.55 1271.45 1124.4 1270.35 1119 1269.3 1113.55 1272.4 1108.9 1363.55 973.35 1363.45 800.15 1363.45 566.45 1198.35 401.35 1122.3 325.35 1031.75 284.4 L1002.65 353.4 Q1080.2 388.8 1145.6 454.15 1262.35 570.7 1283.95 726.95 1284.7 732.45 1281.35 736.9 1278 741.3 1272.5 742.1 1267 742.85 1262.55 739.5 1258.15 736.1 1257.35 730.65 1236.85 583.15 1126.6 473.15 L1126.6 473.1 Q1059.95 406.5 979.95 372.75 L979.7 372.65 Q897 337.8 799.9 337.85 704.1 337.8 622.25 371.95 L653.9 442 Q721.25 414.45 799.9 414.4 881 414.45 950.1 443.6 1014.1 470.35 1067.7 522.35 L1067.9 522.6 1068 522.65 1068.05 522.7 1068.15 522.8 1068.3 522.95 1072.5 527.15 1072.55 527.2 Q1153.3 607.75 1176.4 712.3 1177.6 717.65 1174.65 722.35 1171.65 727.05 1166.25 728.3 1160.85 729.5 1156.15 726.5 1151.45 723.55 1150.2 718.1 1131.1 632.2 1070.15 563.7 1052.7 681.8 876.35 755.95 L880.55 937.75 Q916.5 945.85 951.45 962.25 L951.5 962.25 Q1011.65 990 1067.6 1038.95 1086.2 1018.4 1101.1 996.35 L1101.15 996.35 Q1145 930.95 1155.6 851.95 L1155.6 851.85 Q1158.1 832.5 1158.65 812.35 L973.25 813.15 983.25 877.45 1065.5 886.7 Q1070.95 887.35 1074.45 891.7 1077.9 896.05 1077.3 901.55 1076.7 907.05 1072.35 910.55 1068 914 1062.5 913.4 L970.05 902.95 Q965.55 902.45 962.3 899.3 959 896.15 958.3 891.7 L944.3 801.85 Q943.7 797.95 945.3 794.35 946.95 790.75 950.25 788.55 953.6 786.4 957.5 786.4 L1172.2 785.45 Q1177.75 785.45 1181.75 789.35 1185.7 793.3 1185.7 798.85 L1185.7 800.15 Q1185.7 828.45 1182.2 855.35 L1182.2 855.45 Q1170.8 940.75 1123.4 1011.35 L1123.35 1011.35 Q1103.7 1040.45 1078.1 1067 L1077.95 1067.15 1077.9 1067.2 1077.85 1067.3 1077.7 1067.4 1074.85 1070.4 1073.35 1071.85 1072.55 1072.55 1072.5 1072.65 Q1025.2 1120.05 969.65 1147.45 920.35 1171.8 864.85 1180.7 L864.75 1180.75 Q839.4 1184.6 812.95 1185.35 L812.95 1271 910.1 1458.95 Q950.55 1452.55 989.25 1441.55 L900.15 1269.2 Q898.25 1265.45 898.8 1261.3 899.35 1257.15 902.15 1254.05 905 1250.9 909.05 1250 958.25 1238.6 1003.05 1216.55 1069.7 1183.55 1126.6 1126.65 L1129.15 1124.3 Q1162.5 1090.35 1187.6 1053.2 1244.2 968.95 1257.7 867 1258.5 861.5 1262.9 858.1 1267.3 854.7 1272.8 855.45 1278.3 856.2 1281.7 860.6 1285.05 865.05 1284.35 870.5 1269.95 978.75 1209.85 1068.15 L1209.85 1068.2 Q1183.3 1107.55 1147.9 1143.5 L1146.9 1144.4 1145.6 1145.65 Q1085.45 1205.75 1014.95 1240.6 L1014.9 1240.6 Q975 1260.25 931.8 1271.95 L1020.55 1443.6 Q1022.4 1447.2 1021.95 1451.2 1021.55 1455.15 1019 1458.3 1016.4 1461.4 1012.6 1462.6 960.6 1478.8 905.4 1486.8 L903.45 1487.05 Q853.05 1493.95 799.9 1493.95 746.9 1493.95 696.9 1487.05 L695.05 1486.8 Q639.6 1479 587.7 1462.75 583.9 1461.55 581.35 1458.45 578.8 1455.35 578.35 1451.35 577.95 1447.4 579.8 1443.8 L674.85 1259.8 674.85 1167.7 Q658.35 1161.4 629.75 1147.25 593 1129.1 559.95 1102.2 L560 1102.25 Q543.5 1088.9 515.6 1064.6 L515.55 1064.55 515.45 1064.5 Q454.6 1011.9 419.7 912.7 418.3 908.75 419.45 904.7 420.55 900.7 423.75 898 427 895.25 431.15 894.9 L616.8 878.1 626.75 814.1 338.05 813.25 Q342.55 996 472.95 1126.6 L473 1126.65 Q492.45 1145.9 513 1162.65 L512.95 1162.6 Q552.4 1194.45 596.4 1216.35 601.35 1218.85 603.15 1224.05 604.9 1229.3 602.5 1234.3 L512.3 1419.15 Q509.8 1424.15 504.55 1425.95 499.3 1427.75 494.25 1425.3 428.5 1392.75 368.95 1344.65 338.05 1319.65 309 1290.6 106.05 1087.45 106.05 800.15 106.05 512.5 309 309.15 402.7 215.7 514.05 165.35 L514.05 165.4 Q644.8 106.05 799.9 106.05 1087.4 106.05 1290.6 309.15 1493.95 512.5 1493.95 800.15 1493.95 1087.45 1290.6 1290.6 L1290.6 1290.65 Q1205.3 1376.1 1105.15 1425.5 1100.1 1427.95 1094.85 1426.15 1089.6 1424.35 1087.15 1419.35 L1041.5 1325.8 Q1039.05 1320.75 1040.85 1315.55 1042.65 1310.3 1047.6 1307.85 1129 1267.6 1198.35 1198.2 L1198.4 1198.15 1200.75 1195.85 Q1204.7 1191.9 1210.25 1191.85 1215.8 1191.85 1219.7 1195.8 1223.65 1199.7 1223.7 1205.25 1223.7 1210.8 1219.8 1214.75 L1217.3 1217.25 1217.35 1217.2 Q1149.8 1284.7 1071.4 1325.85 L1105.3 1395.3 Q1194.7 1348.7 1271.6 1271.65 1467.1 1076.35 1467.1 800.15 1467.1 523.6 1271.6 328.15 1076.3 132.85 799.9 132.85 650.8 132.8 525.15 189.85 418.05 238.25 328 328.15 132.9 523.6 132.9 800.15 132.9 1076.35 328 1271.65 356 1299.65 385.85 1323.8 437.55 1365.55 494.15 1395.1 L572.6 1234.3 Q532.5 1212.9 496.05 1183.5 L496.05 1183.45 Q474.45 1165.9 454.05 1145.7 L454 1145.65 Q311.05 1002.5 311.05 800.15 L311.05 799.8 Q311.05 794.25 315 790.3 318.95 786.35 324.5 786.4 L642.45 787.3 Q646.4 787.35 649.75 789.5 653.05 791.7 654.65 795.3 656.3 798.9 655.65 802.8 L641.7 892.6 Q641 897.15 637.6 900.35 634.25 903.5 629.65 903.9 L451.05 920.05 Q479.6 992.95 524.5 1036.3 612.8 960.7 717.45 938.55 L722.45 758.1 Q622.1 736.6 557.6 648.6 554.85 644.8 555 640.25 555.15 635.6 558.1 632.05 611 568.65 685.35 541.6 734.85 523.45 794.15 521.6 L795.05 521.5 796.75 521.4 798.8 521.4 Q829.3 521.4 850.95 543.05 872.6 564.65 872.6 595.2 872.6 625.7 850.95 647.35 829.3 669 798.8 669 768.25 669 746.6 647.35 724.95 625.7 724.95 595.2 725 572.6 736.8 554.95 714.8 559.4 694.55 566.8 631.7 589.75 585.7 641.2 645.85 717.65 738.45 733.85 743.4 734.7 746.55 738.6 749.7 742.45 749.6 747.45 L744.45 933.75 Q772.05 929.75 800.8 929.3 827.4 928.85 853.6 932.7 L849.3 747.4 Q849.2 743.25 851.5 739.75 853.8 736.2 857.65 734.65 1041.3 660.1 1045.05 537.85 996.85 492.35 939.7 468.35 875.35 441.25 799.9 441.3 720.45 441.25 653.5 471.35 L651 472.4 Q611.8 490.4 576.85 518.6 561 531.4 546.05 546.15 L546 546.25 Q483.2 609.2 458.05 687.95 456.65 692.15 453.15 694.75 449.6 697.3 445.25 697.3 L337.7 697.3 Q333.55 697.3 330.15 694.95 326.7 692.6 325.2 688.7 323.65 684.8 324.65 680.8 355.05 553.05 454 454.15 L454.05 454.1 Q469.4 438.9 485.3 425.35 L438.95 366.95 Q419.75 383.15 401.4 401.4 L401.45 401.35 Q236.7 566.45 236.7 800.15 236.7 1033.3 401.4 1198.2 L401.45 1198.2 Q425.15 1221.9 450.15 1242.2 454.45 1245.75 455.05 1251.25 455.6 1256.75 452.1 1261.05 448.6 1265.4 443.1 1265.95 437.55 1266.55 433.25 1263.05 407.2 1241.95 382.45 1217.2 209.85 1044.45 209.85 800.15 209.85 555.35 382.45 382.4 L382.5 382.35 Q404.75 360.25 428.15 341.05 429.4 338.45 431.85 336.5 436.2 333.05 441.7 333.65 447.2 334.25 450.7 338.6 L451.45 339.55 451.55 339.7 506.15 408.45 Q549.95 374.7 598.7 352.8 L600 352.3 Q691.55 311.05 799.9 311 895.55 311.05 977.9 343 L1007 274 Q911.15 236.45 799.9 236.5 674.1 236.45 568 284.5 562.9 286.8 557.75 284.8 552.55 282.85 550.25 277.8 547.95 272.7 549.9 267.55 551.85 262.35 556.9 260.05 668.1 209.7 799.9 209.65 923.85 209.7 1029.55 254.15 M1365.5 234.25 Q1600 468.7 1600 800.15 1600 1131.45 1365.5 1365.5 L1365.5 1365.55 Q1230.15 1501.05 1062.35 1558.25 939.75 1599.95 799.9 1599.95 660.25 1599.95 537.85 1558.25 369.8 1501.25 234.1 1365.5 0 1131.45 0 800.15 0 468.7 234.1 234.25 468.55 0 799.9 0 1131.4 0 1365.5 234.25"/>
  </g>
</svg>